<svg id="svg" version="1.1" xmlns="http://www.w3.org/2000/svg" xmlns:xlink="http://www.w3.org/1999/xlink" width="400" height="400" viewBox="0, 0, 400,400"><g id="svgg"><path id="path0" d="M353.600 39.200 C 353.600 39.420,352.700 39.600,351.600 39.600 C 350.500 39.600,349.600 39.780,349.600 40.000 C 349.600 40.220,349.240 40.400,348.800 40.400 C 348.360 40.400,348.000 40.558,348.000 40.750 C 348.000 40.943,346.725 41.771,345.167 42.590 C 341.165 44.693,335.426 50.470,334.529 53.300 C 334.407 53.685,334.148 54.000,333.953 54.000 C 333.759 54.000,333.591 54.225,333.581 54.500 C 333.571 54.775,332.781 56.620,331.827 58.600 C 329.776 62.855,329.617 62.370,333.710 64.340 C 335.520 65.211,340.020 67.380,343.711 69.162 C 347.402 70.943,350.490 72.400,350.574 72.400 C 350.657 72.400,353.037 73.491,355.862 74.825 C 358.688 76.159,361.720 77.589,362.600 78.002 C 363.480 78.415,366.360 79.772,369.000 81.017 C 376.042 84.338,376.800 84.456,376.800 82.229 C 376.800 81.883,376.980 81.600,377.200 81.600 C 377.420 81.600,377.600 81.240,377.600 80.800 C 377.600 80.360,377.780 80.000,378.000 80.000 C 378.220 80.000,378.400 79.561,378.400 79.024 C 378.400 78.487,378.580 77.936,378.800 77.800 C 379.020 77.664,379.200 77.203,379.200 76.776 C 379.200 76.349,379.380 76.000,379.600 76.000 C 379.820 76.000,380.000 75.550,380.000 75.000 C 380.000 74.450,380.180 74.000,380.400 74.000 C 380.620 74.000,380.800 73.550,380.800 73.000 C 380.800 72.450,380.980 72.000,381.200 72.000 C 381.420 72.000,381.600 71.021,381.600 69.824 C 381.600 68.627,381.780 67.536,382.000 67.400 C 382.220 67.264,382.400 66.083,382.400 64.776 C 382.400 63.459,382.222 62.400,382.000 62.400 C 381.778 62.400,381.600 61.333,381.600 60.000 C 381.600 58.667,381.422 57.600,381.200 57.600 C 380.980 57.600,380.800 57.060,380.800 56.400 C 380.800 55.740,380.620 55.200,380.400 55.200 C 380.180 55.200,380.000 54.761,380.000 54.224 C 380.000 53.687,379.820 53.136,379.600 53.000 C 379.380 52.864,379.200 52.443,379.200 52.065 C 379.200 51.686,378.840 51.117,378.400 50.800 C 377.960 50.483,377.600 50.000,377.600 49.726 C 377.600 48.946,372.744 44.014,371.300 43.327 C 370.585 42.987,370.000 42.549,370.000 42.354 C 370.000 42.159,369.640 42.000,369.200 42.000 C 368.760 42.000,368.400 41.820,368.400 41.600 C 368.400 41.380,368.051 41.200,367.624 41.200 C 367.197 41.200,366.736 41.020,366.600 40.800 C 366.464 40.580,365.924 40.400,365.400 40.400 C 364.876 40.400,364.336 40.220,364.200 40.000 C 364.064 39.780,363.153 39.600,362.176 39.600 C 361.199 39.600,360.400 39.420,360.400 39.200 C 360.400 38.965,359.000 38.800,357.000 38.800 C 355.000 38.800,353.600 38.965,353.600 39.200 M308.626 108.500 C 306.050 114.121,304.838 116.735,303.272 120.051 C 302.401 121.893,301.060 124.750,300.291 126.400 C 297.852 131.632,296.147 135.265,293.842 140.141 C 292.609 142.749,291.600 144.931,291.600 144.991 C 291.600 145.051,290.633 147.148,289.451 149.650 C 288.269 152.153,286.894 155.100,286.397 156.200 C 285.899 157.300,284.641 160.000,283.600 162.200 C 282.559 164.400,281.320 167.053,280.846 168.096 C 280.371 169.139,278.727 172.626,277.192 175.845 C 275.656 179.065,274.400 181.749,274.400 181.810 C 274.400 181.925,272.237 186.603,269.526 192.349 C 268.657 194.192,267.439 196.802,266.821 198.149 C 265.452 201.131,263.463 205.394,261.199 210.200 C 260.266 212.180,259.005 214.880,258.397 216.200 C 257.789 217.520,256.485 220.310,255.500 222.400 C 254.515 224.490,253.341 227.010,252.890 228.000 C 252.440 228.990,251.314 231.420,250.388 233.400 C 247.605 239.353,245.965 242.870,244.791 245.400 C 244.179 246.720,242.962 249.330,242.088 251.200 C 241.213 253.070,239.825 256.040,239.004 257.800 C 238.183 259.560,236.790 262.530,235.909 264.400 C 233.038 270.494,231.701 273.365,230.788 275.400 C 230.294 276.500,229.084 279.110,228.098 281.200 C 226.023 285.601,223.485 291.040,222.341 293.539 C 221.495 295.386,221.583 296.400,222.587 296.400 C 222.924 296.400,223.200 296.580,223.200 296.800 C 223.200 297.020,223.452 297.200,223.759 297.200 C 224.067 297.200,225.282 297.702,226.459 298.317 C 227.637 298.931,229.590 299.855,230.800 300.371 C 232.010 300.886,234.245 301.914,235.766 302.654 C 237.287 303.394,238.772 304.000,239.066 304.000 C 239.360 304.000,239.600 304.180,239.600 304.400 C 239.600 304.620,239.853 304.800,240.162 304.800 C 240.471 304.800,241.416 305.143,242.262 305.561 C 243.108 305.980,244.790 306.771,246.000 307.319 C 247.210 307.866,249.590 308.964,251.289 309.757 C 252.988 310.551,255.328 311.629,256.489 312.153 C 257.650 312.677,260.171 313.847,262.091 314.753 C 266.496 316.831,266.392 316.843,267.686 314.100 C 269.604 310.030,275.652 297.080,276.862 294.451 C 277.508 293.049,278.658 290.574,279.418 288.951 C 282.128 283.166,283.532 280.158,284.905 277.200 C 287.647 271.295,291.543 262.938,293.205 259.400 C 294.134 257.420,295.523 254.450,296.291 252.800 C 297.059 251.150,298.278 248.540,299.000 247.000 C 299.722 245.460,300.765 243.210,301.316 242.000 C 301.868 240.790,303.167 238.000,304.203 235.800 C 306.852 230.175,308.714 226.191,310.000 223.400 C 311.931 219.208,315.732 211.067,318.496 205.200 C 319.378 203.330,321.138 199.550,322.407 196.800 C 323.677 194.050,325.560 190.000,326.591 187.800 C 327.623 185.600,328.971 182.720,329.587 181.400 C 330.203 180.080,331.338 177.650,332.110 176.000 C 333.983 171.994,336.005 167.644,338.802 161.600 C 341.295 156.212,344.160 150.089,346.042 146.124 C 346.725 144.686,347.549 143.543,348.009 143.397 C 348.444 143.259,348.800 142.798,348.800 142.373 C 348.800 141.948,348.980 141.600,349.200 141.600 C 349.420 141.600,349.600 141.240,349.600 140.800 C 349.600 140.360,349.780 140.000,350.000 140.000 C 350.220 140.000,350.400 139.735,350.400 139.412 C 350.400 139.089,350.760 138.183,351.200 137.400 C 351.640 136.617,352.000 135.711,352.000 135.388 C 352.000 135.065,352.180 134.800,352.400 134.800 C 352.620 134.800,352.800 134.440,352.800 134.000 C 352.800 133.560,352.980 133.200,353.200 133.200 C 353.420 133.200,353.600 132.840,353.600 132.400 C 353.600 131.960,353.780 131.600,354.000 131.600 C 354.220 131.600,354.400 131.347,354.400 131.038 C 354.400 130.729,354.786 129.752,355.258 128.868 C 356.253 127.004,356.061 126.650,353.400 125.446 C 352.520 125.047,350.090 123.910,348.000 122.917 C 345.910 121.925,343.480 120.782,342.600 120.379 C 340.023 119.196,332.964 115.869,328.000 113.498 C 325.470 112.290,321.330 110.358,318.800 109.206 C 316.270 108.053,313.491 106.770,312.625 106.355 C 310.283 105.233,310.071 105.347,308.626 108.500 " stroke="none" fill="#f7b348" fill-rule="evenodd"></path><path id="path1" d="M78.800 0.313 C 78.800 0.486,78.262 0.945,77.606 1.333 C 76.949 1.721,75.914 2.885,75.306 3.919 L 74.200 5.800 74.077 20.131 C 73.942 35.784,73.916 35.600,76.249 35.600 C 76.992 35.600,77.600 35.737,77.600 35.905 C 77.600 36.073,77.990 36.388,78.467 36.605 C 78.944 36.822,79.529 37.360,79.767 37.800 C 80.005 38.240,80.307 38.690,80.438 38.800 C 80.869 39.162,81.154 41.971,80.912 43.462 C 80.598 45.397,78.054 48.000,76.476 48.000 C 73.890 48.000,73.978 47.383,74.095 64.593 L 74.200 80.187 75.600 80.419 C 80.663 81.261,82.970 87.510,79.499 90.981 C 78.718 91.762,77.882 92.400,77.640 92.400 C 77.398 92.400,77.200 92.580,77.200 92.800 C 77.200 93.020,76.478 93.200,75.595 93.200 L 73.991 93.200 74.095 109.300 L 74.200 125.400 75.900 125.523 C 76.835 125.591,77.600 125.816,77.600 126.023 C 77.600 126.230,77.778 126.400,77.995 126.400 C 78.604 126.400,80.000 127.715,80.000 128.289 C 80.000 128.570,80.157 128.800,80.349 128.800 C 80.859 128.800,81.219 131.575,80.935 133.322 C 80.607 135.342,78.501 137.412,76.077 138.097 L 74.200 138.627 74.095 154.240 L 73.991 169.853 75.923 170.379 C 79.746 171.420,81.543 174.223,80.922 178.173 C 80.545 180.571,77.766 183.200,75.611 183.200 L 74.000 183.200 74.000 199.200 L 74.000 215.200 74.974 215.200 C 80.265 215.200,83.103 222.417,79.305 226.215 C 78.543 226.977,77.589 227.600,77.184 227.600 C 76.779 227.600,76.336 227.780,76.200 228.000 C 76.064 228.220,75.513 228.400,74.976 228.400 L 74.000 228.400 74.000 244.200 C 74.000 259.573,74.021 260.000,74.776 260.000 C 75.203 260.000,75.664 260.180,75.800 260.400 C 75.936 260.620,76.469 260.800,76.984 260.800 C 79.445 260.800,81.489 264.711,80.905 268.306 C 80.593 270.228,78.034 272.800,76.433 272.800 C 73.838 272.800,74.000 271.707,74.000 289.243 L 74.000 305.200 75.205 305.200 C 77.505 305.200,80.538 307.829,80.914 310.148 C 81.185 311.820,80.822 314.800,80.347 314.800 C 80.156 314.800,80.000 315.004,80.000 315.253 C 80.000 316.089,77.852 317.564,75.912 318.061 L 73.991 318.554 74.095 334.167 L 74.200 349.781 75.400 350.141 C 77.332 350.722,79.369 351.895,79.800 352.676 C 80.020 353.074,80.369 353.521,80.575 353.670 C 81.064 354.022,81.064 359.178,80.575 359.530 C 80.369 359.679,80.005 360.160,79.767 360.600 C 79.529 361.040,78.944 361.578,78.467 361.795 C 77.990 362.012,77.600 362.327,77.600 362.495 C 77.600 362.663,76.992 362.800,76.249 362.800 C 73.906 362.800,73.934 362.598,74.073 378.487 L 74.200 393.027 75.607 394.985 C 76.454 396.164,77.726 397.308,78.807 397.862 C 79.793 398.368,80.818 398.966,81.084 399.192 C 81.748 399.754,342.546 399.760,342.199 399.198 C 342.063 398.979,342.233 398.800,342.576 398.800 C 342.919 398.800,343.200 398.664,343.200 398.498 C 343.200 398.331,343.740 397.956,344.400 397.664 C 345.060 397.372,345.600 396.912,345.600 396.642 C 345.600 396.372,345.960 395.764,346.400 395.292 C 346.840 394.820,347.200 394.156,347.200 393.817 C 347.200 393.478,347.380 393.200,347.600 393.200 C 347.866 393.200,348.000 351.400,348.000 268.600 C 348.000 200.070,347.864 144.000,347.698 144.000 C 347.531 144.000,347.142 144.585,346.832 145.300 C 346.522 146.015,345.205 148.850,343.904 151.600 C 342.603 154.350,341.123 157.500,340.613 158.600 C 340.104 159.700,339.144 161.770,338.479 163.200 C 337.814 164.630,336.105 168.320,334.682 171.400 C 331.639 177.985,329.405 182.761,326.916 188.000 C 325.923 190.090,324.609 192.880,323.996 194.200 C 321.992 198.516,320.305 202.137,318.538 205.915 C 317.582 207.959,316.800 209.691,316.800 209.765 C 316.800 209.907,313.600 216.759,310.525 223.200 C 309.527 225.290,308.211 228.080,307.600 229.400 C 306.989 230.720,305.857 233.150,305.085 234.800 C 300.803 243.951,299.100 247.623,297.016 252.200 C 296.415 253.520,295.060 256.400,294.005 258.600 C 292.950 260.800,291.527 263.815,290.843 265.300 C 289.310 268.630,287.873 271.716,285.236 277.345 C 284.116 279.735,283.200 281.737,283.200 281.795 C 283.200 281.905,280.407 287.873,274.399 300.600 C 273.569 302.360,272.433 304.790,271.876 306.000 C 266.318 318.077,266.761 317.530,263.738 316.045 C 257.661 313.059,255.335 311.994,254.900 311.997 C 254.625 311.999,254.400 311.820,254.400 311.600 C 254.400 311.380,254.135 311.200,253.812 311.200 C 253.489 311.200,252.583 310.840,251.800 310.400 C 251.017 309.960,250.111 309.600,249.788 309.600 C 249.465 309.600,249.200 309.420,249.200 309.200 C 249.200 308.980,248.961 308.800,248.668 308.800 C 248.375 308.800,247.250 308.352,246.169 307.804 L 244.202 306.808 243.892 307.904 C 243.722 308.507,243.392 311.160,243.158 313.800 C 242.925 316.440,242.578 320.130,242.388 322.000 C 241.092 334.710,241.148 335.548,243.300 335.587 C 243.685 335.594,244.000 335.780,244.000 336.000 C 244.000 336.220,244.283 336.400,244.629 336.400 C 245.321 336.400,246.400 337.326,246.400 337.920 C 246.400 338.128,245.365 339.271,244.100 340.461 C 242.835 341.651,241.140 343.429,240.333 344.412 C 235.861 349.862,223.338 361.873,221.881 362.109 C 217.690 362.789,213.554 359.268,214.582 355.895 C 214.732 355.403,215.026 353.110,215.236 350.800 C 215.445 348.490,215.799 344.800,216.021 342.600 C 216.456 338.295,217.077 331.769,217.445 327.634 C 217.572 326.212,217.932 324.811,218.253 324.490 C 218.681 324.062,218.802 323.111,218.716 320.855 L 218.600 317.800 180.400 317.600 C 142.983 317.404,142.178 317.384,141.134 316.600 C 137.637 313.977,137.881 308.759,141.600 306.609 C 142.972 305.816,143.771 305.796,181.593 305.600 L 220.186 305.400 220.658 302.000 C 220.918 300.130,221.146 297.825,221.165 296.878 C 221.201 295.114,221.601 294.053,224.588 287.800 C 225.534 285.820,227.063 282.580,227.987 280.600 C 228.911 278.620,230.096 276.100,230.622 275.000 L 231.577 273.000 187.288 272.800 C 143.748 272.603,142.976 272.586,141.600 271.791 C 137.766 269.575,137.640 264.232,141.363 261.682 L 142.650 260.800 189.865 260.800 L 237.080 260.800 238.290 258.300 C 238.956 256.925,240.243 254.225,241.150 252.300 C 242.058 250.375,243.500 247.315,244.355 245.500 C 245.211 243.685,246.367 241.210,246.924 240.000 C 247.480 238.790,248.850 235.845,249.968 233.455 C 251.086 231.065,252.000 228.770,252.000 228.355 C 252.000 227.619,250.649 227.600,197.494 227.600 C 135.651 227.600,141.131 227.914,139.253 224.266 C 137.696 221.243,138.868 218.013,142.087 216.455 L 143.853 215.600 201.059 215.600 L 258.265 215.600 258.684 214.700 C 258.915 214.205,259.868 212.180,260.801 210.200 C 261.734 208.220,262.828 205.880,263.232 205.000 C 263.636 204.120,265.144 200.902,266.583 197.848 C 268.022 194.794,269.200 192.240,269.200 192.172 C 269.200 192.103,270.100 190.154,271.200 187.839 C 272.300 185.524,273.200 183.445,273.200 183.219 C 273.200 182.939,252.309 182.774,207.900 182.704 L 142.600 182.600 141.250 181.637 C 138.043 179.350,137.777 175.136,140.663 172.339 L 142.044 171.000 210.522 170.915 L 279.000 170.830 280.089 168.715 C 280.689 167.552,282.508 163.717,284.132 160.194 C 287.899 152.023,289.299 149.013,291.292 144.800 C 293.884 139.323,295.839 135.157,296.924 132.800 C 297.480 131.590,298.850 128.645,299.968 126.255 C 301.086 123.865,302.000 121.846,302.000 121.767 C 302.000 121.689,303.098 119.324,304.441 116.513 C 310.221 104.404,309.908 105.376,308.286 104.556 C 305.391 103.093,304.287 100.458,305.580 98.095 C 306.675 96.093,309.200 90.507,309.200 90.086 C 309.200 89.819,309.380 89.600,309.600 89.600 C 309.820 89.600,310.000 89.355,310.000 89.056 C 310.000 87.273,313.489 82.046,314.700 82.013 C 315.301 81.997,315.306 81.932,314.814 80.637 C 314.303 79.294,315.403 76.393,319.825 67.421 C 320.361 66.333,320.800 65.294,320.800 65.113 C 320.800 64.422,322.931 61.600,323.453 61.600 C 323.754 61.600,324.000 61.420,324.000 61.200 C 324.000 60.542,326.329 60.747,327.996 61.552 L 329.553 62.305 330.635 60.052 C 335.038 50.893,336.681 48.320,339.704 45.848 C 340.544 45.162,341.719 44.195,342.315 43.700 C 342.912 43.206,343.625 42.801,343.900 42.800 C 344.175 42.800,344.400 42.620,344.400 42.400 C 344.400 42.180,344.672 42.000,345.005 42.000 C 345.701 42.000,347.258 41.190,347.698 40.600 C 348.155 39.988,348.042 5.127,347.584 5.410 C 347.373 5.540,347.200 5.187,347.200 4.624 C 347.200 4.061,347.020 3.600,346.800 3.600 C 346.580 3.600,346.400 3.322,346.400 2.982 C 346.400 2.308,344.913 0.720,343.982 0.400 C 343.002 0.063,78.800 -0.024,78.800 0.313 M118.362 81.323 C 123.218 83.025,123.349 90.242,118.560 92.242 C 116.158 93.246,102.205 93.024,100.201 91.949 C 95.489 89.424,96.179 82.614,101.297 81.140 C 102.947 80.664,116.911 80.814,118.362 81.323 M280.237 82.223 C 283.380 84.767,283.380 88.833,280.237 91.377 L 278.726 92.600 211.663 92.714 C 174.778 92.777,144.011 92.723,143.291 92.595 C 138.732 91.779,137.108 85.759,140.556 82.457 C 142.296 80.792,137.224 80.900,211.263 80.952 L 278.726 81.000 280.237 82.223 M119.259 126.707 C 121.071 127.834,121.925 129.102,122.048 130.850 C 122.246 133.651,122.009 134.391,120.400 136.000 L 118.800 137.600 109.900 137.599 C 99.703 137.597,99.176 137.455,97.655 134.313 C 95.961 130.814,97.629 127.215,101.517 125.977 C 104.062 125.167,117.683 125.727,119.259 126.707 M279.657 126.706 C 282.431 128.431,283.324 132.210,281.613 134.978 C 279.861 137.814,285.671 137.600,210.479 137.600 L 142.518 137.600 141.169 136.690 C 137.117 133.960,138.206 127.417,142.942 126.034 C 143.688 125.816,171.443 125.693,211.200 125.733 L 278.200 125.800 279.657 126.706 M119.427 171.551 C 123.355 174.166,122.846 180.452,118.560 182.242 C 116.223 183.219,102.316 183.024,100.169 181.985 C 95.826 179.882,96.369 172.022,100.924 171.065 C 103.129 170.602,118.612 171.008,119.427 171.551 M118.640 216.362 C 123.124 218.399,123.365 224.902,119.033 226.957 C 116.881 227.979,101.941 227.897,99.994 226.853 C 95.809 224.609,96.115 218.380,100.508 216.386 C 102.995 215.257,116.168 215.240,118.640 216.362 M119.281 261.583 C 123.345 263.981,122.987 270.091,118.662 272.144 C 116.476 273.181,102.865 273.084,100.508 272.014 C 95.838 269.894,95.895 263.156,100.600 261.186 C 102.444 260.414,117.854 260.741,119.281 261.583 M118.379 306.159 C 122.882 307.786,123.434 314.643,119.242 316.884 C 117.457 317.839,100.866 317.600,99.534 316.600 C 95.837 313.826,96.280 308.570,100.385 306.500 C 102.500 305.433,115.679 305.184,118.379 306.159 " stroke="none" fill="#e3ebfb" fill-rule="evenodd"></path><path id="path2" d="M24.000 35.200 C 24.000 35.420,23.548 35.600,22.995 35.600 C 21.343 35.600,19.200 37.052,19.200 38.171 C 19.200 38.517,19.020 38.800,18.800 38.800 C 18.569 38.800,18.400 40.067,18.400 41.800 C 18.400 43.533,18.569 44.800,18.800 44.800 C 19.020 44.800,19.200 45.094,19.200 45.453 C 19.200 46.344,21.199 47.999,22.276 48.000 C 22.758 48.000,23.264 48.180,23.400 48.400 C 23.718 48.914,48.488 48.947,49.020 48.434 C 49.229 48.233,55.430 48.005,62.800 47.927 C 76.185 47.787,76.202 47.786,77.633 46.823 C 80.548 44.863,81.340 41.107,79.379 38.537 C 77.452 36.011,77.383 36.000,63.096 36.000 C 52.335 36.000,50.022 35.901,49.376 35.413 C 48.431 34.698,24.000 34.493,24.000 35.200 M331.739 63.846 C 332.806 64.401,333.768 64.765,333.878 64.655 C 334.086 64.448,330.688 62.786,330.122 62.819 C 329.945 62.829,330.673 63.291,331.739 63.846 M338.953 67.231 C 340.687 68.109,342.177 68.756,342.264 68.670 C 342.444 68.489,336.618 65.591,336.125 65.617 C 335.946 65.626,337.219 66.352,338.953 67.231 M344.400 69.795 C 344.400 70.005,347.135 71.211,347.549 71.183 C 347.870 71.162,345.101 69.639,344.700 69.617 C 344.535 69.608,344.400 69.688,344.400 69.795 M349.600 72.165 C 349.600 72.367,353.968 74.408,354.348 74.384 C 354.682 74.363,352.598 73.242,350.928 72.544 C 350.198 72.239,349.600 72.068,349.600 72.165 M358.854 76.587 C 359.190 76.923,362.000 78.016,362.000 77.811 C 362.000 77.701,361.348 77.338,360.551 77.005 C 359.075 76.389,358.518 76.251,358.854 76.587 M365.338 79.647 C 366.184 80.093,366.968 80.365,367.081 80.252 C 367.276 80.057,364.580 78.780,364.051 78.818 C 363.913 78.827,364.492 79.200,365.338 79.647 M21.827 80.518 C 19.070 82.237,18.400 83.426,18.400 86.601 C 18.400 89.581,19.086 91.600,20.099 91.600 C 20.323 91.600,20.839 91.984,21.246 92.453 L 21.985 93.305 48.692 93.016 C 73.045 92.752,75.544 92.664,77.037 92.014 C 81.203 90.199,81.684 84.626,77.906 81.932 C 76.622 81.016,76.365 80.995,62.800 80.686 C 35.013 80.055,22.650 80.004,21.827 80.518 M370.400 82.000 C 371.170 82.422,371.980 82.766,372.200 82.766 C 372.420 82.766,371.970 82.422,371.200 82.000 C 370.430 81.578,369.620 81.234,369.400 81.234 C 369.180 81.234,369.630 81.578,370.400 82.000 M24.000 125.200 C 24.000 125.420,23.460 125.600,22.800 125.600 C 22.140 125.600,21.600 125.780,21.600 126.000 C 21.600 126.220,21.317 126.400,20.971 126.400 C 20.253 126.400,19.200 127.334,19.200 127.971 C 19.200 128.207,19.020 128.400,18.800 128.400 C 18.240 128.400,18.293 134.250,18.863 135.326 C 19.567 136.656,21.294 137.999,22.300 138.000 C 22.795 138.000,23.200 138.180,23.200 138.400 C 23.200 139.107,48.431 138.902,49.376 138.187 C 50.022 137.699,52.335 137.600,63.096 137.600 C 77.383 137.600,77.452 137.589,79.379 135.063 C 81.418 132.390,80.379 128.146,77.306 126.592 C 75.934 125.898,74.600 125.817,62.300 125.679 C 54.571 125.592,48.800 125.372,48.800 125.164 C 48.800 124.953,43.579 124.800,36.400 124.800 C 28.400 124.800,24.000 124.942,24.000 125.200 M22.400 170.400 C 22.400 170.620,22.124 170.800,21.787 170.800 C 19.893 170.800,18.400 173.439,18.400 176.787 C 18.400 178.554,18.537 180.000,18.705 180.000 C 18.873 180.000,19.188 180.390,19.405 180.867 C 19.622 181.344,20.160 181.929,20.600 182.167 C 21.040 182.405,21.515 182.758,21.655 182.952 C 22.268 183.795,75.257 182.804,77.139 181.913 C 80.791 180.186,81.654 175.654,78.862 172.862 C 76.842 170.842,76.572 170.810,61.924 170.804 C 54.176 170.802,49.556 170.652,49.400 170.400 C 49.243 170.146,44.263 170.000,35.776 170.000 C 27.125 170.000,22.400 170.141,22.400 170.400 M21.597 215.500 C 21.596 215.665,21.056 216.107,20.397 216.481 C 19.739 216.856,19.200 217.441,19.200 217.781 C 19.200 218.122,19.020 218.400,18.800 218.400 C 18.567 218.400,18.400 219.738,18.400 221.613 C 18.400 224.961,19.893 227.600,21.787 227.600 C 22.124 227.600,22.400 227.785,22.400 228.010 C 22.400 228.779,76.089 227.692,77.484 226.895 C 81.463 224.619,81.352 218.558,77.294 216.544 C 75.365 215.587,21.605 214.579,21.597 215.500 M21.870 260.581 C 21.029 260.881,20.296 261.188,20.241 261.263 C 18.524 263.619,18.400 264.003,18.400 266.962 C 18.400 268.633,18.537 270.000,18.705 270.000 C 18.873 270.000,19.188 270.390,19.405 270.867 C 19.622 271.344,20.160 271.929,20.600 272.167 C 21.040 272.405,21.490 272.710,21.600 272.845 C 22.476 273.916,48.156 274.469,48.943 273.434 C 49.330 272.925,51.450 272.816,62.800 272.717 C 79.227 272.574,80.400 272.163,80.400 266.558 C 80.400 261.345,78.719 260.800,62.636 260.800 C 54.408 260.800,49.557 260.653,49.400 260.400 C 48.993 259.742,23.759 259.907,21.870 260.581 M21.200 306.000 C 20.883 306.440,20.405 306.800,20.139 306.800 C 19.872 306.800,19.540 307.160,19.400 307.600 C 19.260 308.040,18.978 308.400,18.773 308.400 C 18.568 308.400,18.400 309.854,18.400 311.631 L 18.400 314.863 20.033 316.432 C 22.210 318.524,21.602 318.457,36.400 318.226 C 70.135 317.699,76.519 317.455,77.710 316.647 C 81.536 314.053,81.338 308.549,77.347 306.568 C 74.525 305.167,22.182 304.637,21.200 306.000 M217.858 328.700 C 217.633 331.986,217.414 334.349,216.421 344.200 C 214.791 360.370,215.077 361.600,220.470 361.600 L 222.879 361.600 231.146 353.100 C 242.592 341.331,245.600 338.175,245.600 337.939 C 245.600 337.732,235.583 332.678,230.800 330.471 C 229.370 329.811,226.245 328.355,223.855 327.236 C 217.969 324.478,218.150 324.433,217.858 328.700 M23.400 350.000 C 23.264 350.220,22.758 350.400,22.276 350.400 C 21.199 350.401,19.200 352.056,19.200 352.947 C 19.200 353.306,19.020 353.600,18.800 353.600 C 18.569 353.600,18.400 354.867,18.400 356.600 C 18.400 358.333,18.569 359.600,18.800 359.600 C 19.020 359.600,19.200 359.883,19.200 360.229 C 19.200 361.348,21.343 362.800,22.995 362.800 C 23.548 362.800,24.000 362.980,24.000 363.200 C 24.000 363.911,48.070 363.725,49.454 363.002 C 50.401 362.509,52.839 362.405,63.506 362.402 C 76.082 362.400,76.445 362.378,77.739 361.530 C 80.543 359.691,81.309 355.867,79.379 353.337 C 77.449 350.807,77.406 350.800,62.869 350.800 C 51.649 350.800,49.624 350.711,49.200 350.200 C 48.597 349.474,23.844 349.282,23.400 350.000 " stroke="none" fill="#526272" fill-rule="evenodd"></path><path id="path3" d="M324.117 61.591 C 323.366 61.906,321.200 64.736,321.200 65.402 C 321.200 65.595,319.607 69.047,316.588 75.400 C 315.282 78.146,315.044 79.378,315.543 80.807 C 315.948 81.971,315.901 82.060,314.534 82.712 C 313.033 83.428,313.213 83.116,308.601 93.000 C 307.780 94.760,306.769 96.909,306.354 97.775 C 305.125 100.342,306.119 104.000,308.046 104.000 C 308.339 104.000,311.415 105.388,318.000 108.491 C 319.870 109.372,322.660 110.681,324.200 111.399 C 325.740 112.117,328.350 113.336,330.000 114.106 C 331.650 114.877,335.037 116.436,337.526 117.570 C 341.588 119.422,345.517 121.260,353.076 124.844 C 354.515 125.526,355.657 126.349,355.803 126.809 C 355.941 127.244,356.402 127.600,356.827 127.600 C 357.252 127.600,357.600 127.780,357.600 128.000 C 357.600 128.220,358.410 128.400,359.400 128.400 C 360.390 128.400,361.200 128.220,361.200 128.000 C 361.200 127.780,361.483 127.600,361.829 127.600 C 362.637 127.600,363.600 126.637,363.600 125.829 C 363.600 125.483,363.780 125.200,364.000 125.200 C 364.220 125.200,364.400 124.840,364.400 124.400 C 364.400 123.960,364.580 123.600,364.800 123.600 C 365.020 123.600,365.200 123.251,365.200 122.824 C 365.200 122.397,365.389 121.931,365.619 121.788 C 366.359 121.331,365.257 120.480,361.755 118.805 C 356.386 116.237,351.924 114.143,350.200 113.383 C 349.320 112.995,347.300 112.075,345.711 111.339 C 344.123 110.602,342.548 110.000,342.211 110.000 C 341.875 110.000,341.600 109.820,341.600 109.600 C 341.600 109.380,341.240 109.200,340.800 109.200 C 340.360 109.200,340.000 109.020,340.000 108.800 C 340.000 108.580,339.640 108.400,339.200 108.400 C 338.760 108.400,338.400 108.220,338.400 108.000 C 338.400 107.780,338.040 107.600,337.600 107.600 C 337.160 107.600,336.800 107.420,336.800 107.200 C 336.800 106.980,336.535 106.800,336.212 106.800 C 335.889 106.800,334.983 106.440,334.200 106.000 C 333.417 105.560,332.511 105.200,332.188 105.200 C 331.865 105.200,331.600 105.020,331.600 104.800 C 331.600 104.580,331.240 104.400,330.800 104.400 C 330.360 104.400,330.000 104.220,330.000 104.000 C 330.000 103.780,329.731 103.600,329.403 103.600 C 328.625 103.600,326.800 102.007,326.800 101.328 C 326.800 101.038,326.584 100.800,326.320 100.800 C 325.947 100.800,325.947 100.693,326.320 100.320 C 326.584 100.056,326.800 99.426,326.800 98.920 C 326.800 98.414,326.980 98.000,327.200 98.000 C 327.420 98.000,327.600 97.778,327.600 97.506 C 327.600 96.802,330.940 90.026,331.294 90.012 C 331.455 90.005,332.702 90.540,334.065 91.200 C 335.427 91.860,336.780 92.400,337.071 92.400 C 337.362 92.400,337.600 92.580,337.600 92.800 C 337.600 93.020,337.949 93.200,338.376 93.200 C 338.803 93.200,339.264 93.380,339.400 93.600 C 339.536 93.820,339.997 94.000,340.424 94.000 C 340.851 94.000,341.200 94.180,341.200 94.400 C 341.200 94.620,341.560 94.800,342.000 94.800 C 342.440 94.800,342.800 94.980,342.800 95.200 C 342.800 95.420,343.160 95.600,343.600 95.600 C 344.040 95.600,344.400 95.780,344.400 96.000 C 344.400 96.220,344.760 96.400,345.200 96.400 C 345.640 96.400,346.000 96.580,346.000 96.800 C 346.000 97.020,346.360 97.200,346.800 97.200 C 347.240 97.200,347.600 97.380,347.600 97.600 C 347.600 97.820,347.960 98.000,348.400 98.000 C 348.840 98.000,349.200 98.180,349.200 98.400 C 349.200 98.620,349.465 98.800,349.788 98.800 C 350.111 98.800,351.017 99.160,351.800 99.600 C 352.583 100.040,353.489 100.400,353.812 100.400 C 354.135 100.400,354.400 100.580,354.400 100.800 C 354.400 101.020,354.760 101.200,355.200 101.200 C 355.640 101.200,356.000 101.380,356.000 101.600 C 356.000 101.820,356.226 102.000,356.501 102.000 C 356.777 102.000,358.262 102.608,359.801 103.351 C 362.483 104.645,364.046 105.345,368.000 107.022 C 368.990 107.441,370.019 108.058,370.287 108.392 C 370.706 108.915,370.776 108.874,370.787 108.100 C 370.794 107.605,370.972 107.200,371.182 107.200 C 372.225 107.200,375.200 102.769,375.200 101.217 C 375.200 100.981,375.380 100.432,375.600 99.995 C 375.820 99.558,376.180 98.842,376.400 98.405 C 376.620 97.968,376.800 97.338,376.800 97.005 C 376.800 96.672,376.980 96.400,377.200 96.400 C 377.420 96.400,377.600 96.040,377.600 95.600 C 377.600 95.160,377.780 94.800,378.000 94.800 C 378.220 94.800,378.400 94.440,378.400 94.000 C 378.400 93.560,378.580 93.200,378.800 93.200 C 379.020 93.200,379.200 92.840,379.200 92.400 C 379.200 91.960,379.380 91.600,379.600 91.600 C 379.820 91.600,380.000 91.075,380.000 90.433 C 380.000 89.792,380.225 89.184,380.500 89.083 C 380.900 88.937,380.900 88.794,380.500 88.370 C 380.225 88.079,380.000 87.413,380.000 86.891 C 380.000 85.804,379.149 84.800,378.229 84.800 C 377.883 84.800,377.600 84.620,377.600 84.400 C 377.600 84.180,376.960 84.000,376.178 84.000 C 374.742 84.000,374.076 83.740,367.200 80.500 C 365.110 79.515,362.320 78.211,361.000 77.602 C 359.680 76.993,357.160 75.824,355.400 75.003 C 353.640 74.183,350.850 72.884,349.200 72.115 C 347.550 71.347,344.400 69.855,342.200 68.800 C 325.319 60.705,325.785 60.891,324.117 61.591 M369.054 113.373 C 368.311 114.508,368.214 115.200,368.800 115.200 C 369.020 115.200,369.200 114.876,369.200 114.480 C 369.200 114.084,369.413 113.547,369.673 113.287 C 369.934 113.026,370.048 112.715,369.928 112.594 C 369.807 112.474,369.414 112.824,369.054 113.373 M367.264 117.019 C 366.698 118.262,366.691 118.400,367.200 118.400 C 367.420 118.400,367.600 118.040,367.600 117.600 C 367.600 117.160,367.780 116.800,368.000 116.800 C 368.220 116.800,368.400 116.620,368.400 116.400 C 368.400 115.638,367.726 116.005,367.264 117.019 " stroke="none" fill="#4a9cf6" fill-rule="evenodd"></path><path id="path4" d="M53.600 0.467 C 53.600 0.723,53.491 0.824,53.357 0.691 C 52.707 0.041,49.600 4.146,49.600 5.654 C 49.600 6.258,49.429 6.859,49.219 6.988 C 48.359 7.520,48.693 35.115,49.565 35.581 C 50.063 35.848,55.011 36.000,63.194 36.000 C 77.373 36.000,77.454 36.013,79.379 38.537 C 81.340 41.108,80.548 44.865,77.633 46.822 C 76.207 47.779,76.135 47.784,62.600 47.992 L 49.000 48.200 48.895 64.291 L 48.791 80.382 49.695 80.585 C 50.193 80.696,56.450 80.835,63.600 80.893 C 79.325 81.022,80.400 81.414,80.400 87.018 C 80.400 92.190,78.594 92.780,62.733 92.791 C 55.766 92.796,49.781 92.909,49.433 93.043 C 48.870 93.259,48.800 95.075,48.800 109.407 L 48.800 125.528 62.300 125.679 C 74.600 125.817,75.934 125.898,77.306 126.592 C 80.379 128.146,81.418 132.390,79.379 135.063 C 77.454 137.587,77.373 137.600,63.194 137.600 C 55.103 137.600,50.061 137.753,49.574 138.014 C 48.620 138.525,48.339 169.379,49.280 170.320 C 49.632 170.672,53.014 170.801,61.980 170.804 C 76.568 170.810,76.843 170.843,78.862 172.862 C 81.460 175.460,80.908 179.673,77.710 181.661 C 76.222 182.587,76.005 182.603,62.600 182.800 L 49.000 183.000 49.000 199.200 L 49.000 215.400 62.400 215.600 C 79.039 215.848,80.400 216.321,80.400 221.856 C 80.400 226.998,78.558 227.595,62.674 227.598 C 54.946 227.599,50.059 227.754,49.574 228.014 C 48.620 228.525,48.339 259.379,49.280 260.320 C 49.634 260.674,53.167 260.800,62.693 260.800 C 78.712 260.800,80.400 261.349,80.400 266.558 C 80.400 272.155,79.258 272.555,62.600 272.800 L 49.000 273.000 49.000 289.200 L 49.000 305.400 62.400 305.600 C 74.569 305.782,75.942 305.871,77.347 306.568 C 80.811 308.287,81.577 312.823,78.862 315.538 C 76.847 317.553,76.546 317.590,62.274 317.596 C 54.826 317.598,50.057 317.756,49.574 318.014 C 48.620 318.525,48.339 349.379,49.280 350.320 C 49.634 350.674,53.213 350.800,62.900 350.800 C 77.402 350.800,77.450 350.807,79.379 353.337 C 81.309 355.867,80.543 359.691,77.739 361.530 C 76.446 362.378,76.081 362.400,63.632 362.400 C 56.223 362.400,50.417 362.565,49.817 362.793 L 48.783 363.187 48.810 377.393 C 48.827 386.112,48.985 391.600,49.219 391.600 C 49.428 391.600,49.606 392.185,49.613 392.900 C 49.626 394.236,50.476 395.791,50.940 395.327 C 51.083 395.184,51.200 395.474,51.200 395.971 C 51.200 396.538,51.498 396.953,52.000 397.084 C 52.440 397.199,52.800 397.452,52.800 397.647 C 52.800 397.841,53.190 398.000,53.667 398.000 C 54.143 398.000,54.416 398.117,54.273 398.260 C 53.197 399.336,55.724 399.575,68.300 399.587 C 82.008 399.601,82.333 399.553,79.118 398.000 C 77.689 397.310,76.607 396.385,75.624 395.014 L 74.200 393.027 74.073 378.487 C 73.934 362.598,73.906 362.800,76.249 362.800 C 76.992 362.800,77.600 362.663,77.600 362.495 C 77.600 362.327,77.990 362.012,78.467 361.795 C 78.944 361.578,79.529 361.040,79.767 360.600 C 80.005 360.160,80.369 359.679,80.575 359.530 C 81.064 359.178,81.064 354.022,80.575 353.670 C 80.369 353.521,80.020 353.074,79.800 352.676 C 79.369 351.895,77.332 350.722,75.400 350.141 L 74.200 349.781 74.095 334.167 L 73.991 318.554 75.912 318.061 C 77.852 317.564,80.000 316.089,80.000 315.253 C 80.000 315.004,80.156 314.800,80.347 314.800 C 80.822 314.800,81.185 311.820,80.914 310.148 C 80.538 307.829,77.505 305.200,75.205 305.200 L 74.000 305.200 74.000 289.243 C 74.000 271.707,73.838 272.800,76.433 272.800 C 78.034 272.800,80.593 270.228,80.905 268.306 C 81.489 264.711,79.445 260.800,76.984 260.800 C 76.469 260.800,75.936 260.620,75.800 260.400 C 75.664 260.180,75.203 260.000,74.776 260.000 C 74.021 260.000,74.000 259.573,74.000 244.200 L 74.000 228.400 74.976 228.400 C 75.513 228.400,76.064 228.220,76.200 228.000 C 76.336 227.780,76.779 227.600,77.184 227.600 C 77.589 227.600,78.544 226.976,79.307 226.213 C 83.103 222.417,80.264 215.200,74.974 215.200 L 74.000 215.200 74.000 199.200 L 74.000 183.200 75.611 183.200 C 77.766 183.200,80.545 180.571,80.922 178.173 C 81.543 174.223,79.746 171.420,75.923 170.379 L 73.991 169.853 74.095 154.240 L 74.200 138.627 76.077 138.097 C 78.512 137.409,80.611 135.340,80.937 133.306 C 81.217 131.550,80.858 128.800,80.348 128.800 C 80.156 128.800,80.000 128.570,80.000 128.289 C 80.000 127.715,78.604 126.400,77.995 126.400 C 77.778 126.400,77.600 126.230,77.600 126.023 C 77.600 125.816,76.835 125.591,75.900 125.523 L 74.200 125.400 74.095 109.300 L 73.991 93.200 75.595 93.200 C 76.478 93.200,77.200 93.020,77.200 92.800 C 77.200 92.580,77.398 92.400,77.640 92.400 C 77.882 92.400,78.718 91.762,79.499 90.981 C 82.970 87.510,80.663 81.261,75.600 80.419 L 74.200 80.187 74.095 64.593 C 73.978 47.383,73.890 48.000,76.476 48.000 C 78.054 48.000,80.598 45.397,80.912 43.462 C 81.154 41.971,80.869 39.162,80.438 38.800 C 80.307 38.690,80.005 38.240,79.767 37.800 C 79.529 37.360,78.944 36.822,78.467 36.605 C 77.990 36.388,77.600 36.073,77.600 35.905 C 77.600 35.737,76.992 35.600,76.249 35.600 C 73.916 35.600,73.942 35.784,74.077 20.131 L 74.200 5.800 75.306 3.919 C 75.914 2.885,76.949 1.721,77.606 1.333 C 79.720 0.084,79.002 0.000,66.200 0.000 C 56.867 0.000,53.600 0.121,53.600 0.467 M346.200 41.600 C 346.064 41.820,345.603 42.000,345.176 42.000 C 344.749 42.000,344.400 42.180,344.400 42.400 C 344.400 42.620,344.175 42.800,343.900 42.800 C 343.625 42.801,342.912 43.206,342.315 43.700 C 341.719 44.195,340.544 45.162,339.704 45.848 C 336.890 48.149,330.511 58.244,331.345 59.078 C 331.556 59.289,333.600 55.039,333.600 54.388 C 333.600 54.175,333.759 54.000,333.953 54.000 C 334.148 54.000,334.407 53.685,334.529 53.300 C 335.387 50.594,341.267 44.583,344.803 42.798 C 346.121 42.133,347.200 41.501,347.200 41.394 C 347.200 41.039,346.451 41.194,346.200 41.600 M330.242 60.837 C 329.479 62.366,329.440 62.800,330.067 62.800 C 330.323 62.800,330.421 62.687,330.283 62.549 C 330.145 62.411,330.308 61.765,330.645 61.112 C 330.983 60.460,331.174 59.841,331.071 59.738 C 330.968 59.635,330.595 60.129,330.242 60.837 M324.000 61.208 C 324.000 61.436,324.414 61.511,324.943 61.379 C 325.462 61.248,326.570 61.427,327.405 61.776 C 328.240 62.125,329.005 62.329,329.105 62.229 C 329.205 62.129,328.615 61.766,327.794 61.423 C 326.102 60.716,324.000 60.597,324.000 61.208 M321.853 63.191 C 321.274 64.067,320.800 64.931,320.800 65.113 C 320.800 65.294,320.361 66.333,319.825 67.421 C 315.403 76.393,314.303 79.294,314.814 80.637 C 315.306 81.932,315.301 81.997,314.700 82.013 C 313.489 82.046,310.000 87.273,310.000 89.056 C 310.000 89.355,309.820 89.600,309.600 89.600 C 309.380 89.600,309.200 89.819,309.200 90.086 C 309.200 90.507,306.675 96.093,305.580 98.095 C 304.291 100.450,305.392 103.094,308.265 104.545 C 309.256 105.046,309.488 105.380,309.337 106.092 C 309.168 106.890,309.199 106.915,309.592 106.300 C 310.188 105.368,310.661 105.412,313.213 106.643 C 316.235 108.101,317.298 108.482,316.999 107.999 C 316.864 107.779,316.600 107.600,316.413 107.600 C 316.227 107.600,314.340 106.790,312.222 105.800 C 310.103 104.810,308.251 104.000,308.107 104.000 C 306.116 104.000,305.101 100.393,306.354 97.775 C 306.769 96.909,307.780 94.760,308.601 93.000 C 313.213 83.116,313.033 83.428,314.534 82.712 C 315.901 82.060,315.948 81.971,315.543 80.807 C 315.044 79.378,315.282 78.146,316.588 75.400 C 319.710 68.831,321.200 65.590,321.200 65.368 C 321.200 65.230,321.734 64.325,322.386 63.358 C 323.039 62.391,323.423 61.600,323.240 61.600 C 323.056 61.600,322.432 62.316,321.853 63.191 M101.297 81.140 C 96.179 82.614,95.489 89.424,100.201 91.949 C 102.205 93.024,116.158 93.246,118.560 92.242 C 123.349 90.242,123.218 83.025,118.362 81.323 C 116.911 80.814,102.947 80.664,101.297 81.140 M142.800 81.085 C 138.630 81.840,137.279 88.230,140.661 91.199 C 142.604 92.906,139.415 92.838,211.663 92.714 L 278.726 92.600 280.237 91.377 C 283.380 88.833,283.380 84.767,280.237 82.223 L 278.726 81.000 211.263 80.952 C 174.158 80.926,143.350 80.986,142.800 81.085 M329.300 93.517 C 328.365 95.439,327.600 97.234,327.600 97.506 C 327.600 97.778,327.420 98.000,327.200 98.000 C 326.980 98.000,326.800 98.414,326.800 98.920 C 326.800 99.426,326.584 100.056,326.320 100.320 C 325.947 100.693,325.947 100.800,326.320 100.800 C 326.584 100.800,326.800 101.038,326.800 101.328 C 326.800 102.007,328.625 103.600,329.403 103.600 C 329.731 103.600,330.000 103.780,330.000 104.000 C 330.000 104.220,330.360 104.400,330.800 104.400 C 331.240 104.400,331.600 104.580,331.600 104.800 C 331.600 105.020,331.865 105.200,332.188 105.200 C 332.511 105.200,333.417 105.560,334.200 106.000 C 334.983 106.440,335.889 106.800,336.212 106.800 C 336.535 106.800,336.800 106.980,336.800 107.200 C 336.800 107.420,337.160 107.600,337.600 107.600 C 338.040 107.600,338.400 107.780,338.400 108.000 C 338.400 108.220,338.760 108.400,339.200 108.400 C 339.640 108.400,340.000 108.580,340.000 108.800 C 340.000 109.020,340.360 109.200,340.800 109.200 C 341.240 109.200,341.600 109.380,341.600 109.600 C 341.600 109.820,341.875 110.000,342.211 110.000 C 342.548 110.000,344.123 110.602,345.711 111.339 C 347.300 112.075,349.320 112.995,350.200 113.383 C 351.769 114.075,355.639 115.884,361.600 118.714 C 363.250 119.498,364.915 120.405,365.300 120.731 C 365.923 121.259,366.000 121.252,366.000 120.662 C 366.000 120.298,366.191 120.000,366.424 120.000 C 366.657 120.000,366.743 119.832,366.616 119.626 C 366.324 119.153,367.565 116.000,368.043 116.000 C 368.240 116.000,368.400 115.623,368.400 115.162 C 368.400 114.701,368.771 113.802,369.225 113.164 C 369.679 112.527,369.939 111.824,369.802 111.603 C 369.665 111.381,369.833 111.200,370.176 111.200 C 372.168 111.200,370.556 108.105,368.000 107.022 C 364.046 105.345,362.483 104.645,359.801 103.351 C 358.262 102.608,356.777 102.000,356.501 102.000 C 356.226 102.000,356.000 101.820,356.000 101.600 C 356.000 101.380,355.640 101.200,355.200 101.200 C 354.760 101.200,354.400 101.020,354.400 100.800 C 354.400 100.580,354.135 100.400,353.812 100.400 C 353.489 100.400,352.583 100.040,351.800 99.600 C 351.017 99.160,350.111 98.800,349.788 98.800 C 349.465 98.800,349.200 98.620,349.200 98.400 C 349.200 98.180,348.840 98.000,348.400 98.000 C 347.960 98.000,347.600 97.820,347.600 97.600 C 347.600 97.380,347.240 97.200,346.800 97.200 C 346.360 97.200,346.000 97.020,346.000 96.800 C 346.000 96.580,345.640 96.400,345.200 96.400 C 344.760 96.400,344.400 96.220,344.400 96.000 C 344.400 95.780,344.040 95.600,343.600 95.600 C 343.160 95.600,342.800 95.420,342.800 95.200 C 342.800 94.980,342.440 94.800,342.000 94.800 C 341.560 94.800,341.200 94.620,341.200 94.400 C 341.200 94.180,340.851 94.000,340.424 94.000 C 339.997 94.000,339.536 93.820,339.400 93.600 C 339.264 93.380,338.803 93.200,338.376 93.200 C 337.949 93.200,337.600 93.020,337.600 92.800 C 337.600 92.580,337.362 92.400,337.071 92.400 C 336.780 92.400,335.427 91.860,334.065 91.200 C 330.889 89.662,331.265 89.478,329.300 93.517 M307.442 110.037 C 306.506 111.913,306.690 112.476,307.647 110.662 C 308.093 109.816,308.374 109.040,308.271 108.937 C 308.168 108.834,307.795 109.329,307.442 110.037 M320.000 109.800 C 320.550 110.114,321.180 110.372,321.400 110.372 C 321.620 110.372,321.350 110.114,320.800 109.800 C 320.250 109.486,319.620 109.228,319.400 109.228 C 319.180 109.228,319.450 109.486,320.000 109.800 M304.962 115.500 C 301.312 123.175,300.003 126.137,300.184 126.317 C 300.290 126.424,300.542 126.081,300.743 125.555 C 300.945 125.030,302.046 122.620,303.190 120.200 C 304.335 117.780,305.556 115.170,305.903 114.400 C 306.250 113.630,306.605 112.865,306.691 112.700 C 306.777 112.535,306.755 112.400,306.642 112.400 C 306.529 112.400,305.773 113.795,304.962 115.500 M335.264 116.929 C 337.610 118.068,340.670 119.514,342.064 120.142 C 343.459 120.770,346.220 122.057,348.200 123.002 C 350.180 123.948,352.520 125.045,353.400 125.440 C 354.280 125.835,355.132 126.348,355.294 126.579 C 355.490 126.859,355.590 126.839,355.594 126.518 C 355.597 126.253,354.295 125.419,352.700 124.665 C 344.905 120.978,342.175 119.701,337.056 117.348 C 330.404 114.291,329.303 114.033,335.264 116.929 M101.517 125.977 C 97.629 127.215,95.961 130.814,97.655 134.313 C 99.176 137.455,99.703 137.597,109.900 137.599 L 118.800 137.600 120.400 136.000 C 122.009 134.391,122.246 133.651,122.048 130.850 C 121.925 129.102,121.071 127.834,119.259 126.707 C 117.683 125.727,104.062 125.167,101.517 125.977 M142.942 126.034 C 138.206 127.417,137.117 133.960,141.169 136.690 L 142.518 137.600 210.479 137.600 C 285.671 137.600,279.861 137.814,281.613 134.978 C 283.324 132.210,282.431 128.431,279.657 126.706 L 278.200 125.800 211.200 125.733 C 171.443 125.693,143.688 125.816,142.942 126.034 M298.641 129.023 C 297.236 132.091,297.356 132.347,298.846 129.460 C 299.510 128.173,299.970 127.036,299.868 126.934 C 299.766 126.832,299.214 127.772,298.641 129.023 M345.678 146.900 C 344.820 148.715,343.791 150.920,343.391 151.800 C 342.992 152.680,342.595 153.535,342.509 153.700 C 342.423 153.865,342.445 154.000,342.557 154.000 C 342.737 154.000,344.212 151.023,346.620 145.800 C 347.026 144.920,347.548 144.068,347.779 143.906 C 348.059 143.710,348.039 143.610,347.719 143.606 C 347.454 143.603,346.536 145.085,345.678 146.900 M290.636 146.079 C 289.522 148.313,289.215 149.771,290.266 147.828 C 291.131 146.232,292.049 144.000,291.841 144.000 C 291.748 144.000,291.205 144.935,290.636 146.079 M288.417 150.962 C 287.976 151.931,286.530 155.019,285.204 157.825 C 283.878 160.631,282.872 163.005,282.969 163.102 C 283.065 163.199,283.501 162.495,283.937 161.539 C 284.373 160.583,285.479 158.180,286.397 156.200 C 287.314 154.220,288.350 151.970,288.699 151.200 C 289.049 150.430,289.405 149.665,289.491 149.500 C 289.577 149.335,289.551 149.200,289.434 149.200 C 289.316 149.200,288.859 149.993,288.417 150.962 M341.059 156.659 C 340.456 157.889,340.047 158.981,340.152 159.085 C 340.257 159.190,340.813 158.246,341.388 156.988 C 342.748 154.016,342.484 153.752,341.059 156.659 M338.659 161.859 C 338.056 163.089,337.647 164.181,337.752 164.285 C 337.857 164.390,338.413 163.446,338.988 162.188 C 340.348 159.216,340.084 158.952,338.659 161.859 M281.872 165.019 C 280.932 166.989,281.064 167.324,282.047 165.462 C 282.493 164.616,282.787 163.854,282.701 163.767 C 282.614 163.681,282.241 164.244,281.872 165.019 M335.606 168.499 C 333.673 172.646,331.552 177.190,329.259 182.100 C 328.411 183.915,327.391 186.120,326.991 187.000 C 326.592 187.880,326.195 188.735,326.109 188.900 C 326.023 189.065,326.044 189.200,326.156 189.200 C 326.268 189.200,326.887 188.075,327.533 186.700 C 328.179 185.325,329.383 182.760,330.210 181.000 C 335.325 170.110,337.605 165.072,337.477 164.944 C 337.397 164.864,336.555 166.463,335.606 168.499 M279.536 169.786 L 279.000 170.832 210.522 170.916 L 142.044 171.000 140.663 172.339 C 137.777 175.136,138.043 179.350,141.250 181.637 L 142.600 182.600 207.900 182.704 C 251.816 182.773,273.200 182.940,273.200 183.214 C 273.200 183.437,272.370 185.371,271.355 187.510 C 269.286 191.871,268.736 193.200,269.000 193.200 C 269.099 193.200,269.569 192.345,270.045 191.300 C 270.520 190.255,271.695 187.718,272.655 185.663 C 273.615 183.608,274.400 181.873,274.400 181.808 C 274.400 181.743,275.755 178.855,277.411 175.390 C 279.067 171.924,280.344 169.010,280.248 168.914 C 280.151 168.818,279.831 169.210,279.536 169.786 M100.924 171.065 C 96.369 172.022,95.826 179.882,100.169 181.985 C 102.316 183.024,116.223 183.219,118.560 182.242 C 122.846 180.452,123.355 174.166,119.427 171.551 C 118.612 171.008,103.129 170.602,100.924 171.065 M324.255 192.655 C 323.876 193.449,323.648 194.181,323.749 194.282 C 323.849 194.383,324.241 193.814,324.618 193.018 C 324.996 192.222,325.223 191.490,325.124 191.391 C 325.025 191.291,324.633 191.860,324.255 192.655 M267.459 195.859 C 266.856 197.089,266.442 198.175,266.540 198.273 C 266.638 198.371,267.189 197.422,267.765 196.165 C 269.125 193.194,268.884 192.953,267.459 195.859 M321.855 197.855 C 321.476 198.649,321.248 199.381,321.349 199.482 C 321.449 199.583,321.841 199.014,322.218 198.218 C 322.596 197.422,322.823 196.690,322.724 196.591 C 322.625 196.491,322.233 197.060,321.855 197.855 M265.035 201.035 C 264.460 202.293,264.063 203.396,264.153 203.487 C 264.244 203.577,264.789 202.622,265.365 201.365 C 265.940 200.107,266.337 199.004,266.247 198.913 C 266.156 198.823,265.611 199.778,265.035 201.035 M319.878 202.220 C 318.409 205.214,318.545 205.569,320.046 202.660 C 320.710 201.373,321.186 200.253,321.104 200.171 C 321.023 200.089,320.471 201.011,319.878 202.220 M263.042 205.237 C 262.106 207.113,262.290 207.676,263.247 205.862 C 263.693 205.016,263.974 204.240,263.871 204.137 C 263.768 204.034,263.395 204.529,263.042 205.237 M317.183 207.845 C 316.942 208.480,316.233 210.080,315.608 211.400 C 310.106 223.020,309.488 224.400,309.792 224.400 C 309.957 224.400,311.026 222.219,314.203 215.400 C 317.308 208.736,318.012 207.079,317.820 206.887 C 317.711 206.778,317.425 207.209,317.183 207.845 M259.842 212.037 C 258.906 213.913,259.090 214.476,260.047 212.662 C 260.493 211.816,260.774 211.040,260.671 210.937 C 260.568 210.834,260.195 211.329,259.842 212.037 M258.545 215.000 C 258.341 215.529,251.586 215.600,201.083 215.600 L 143.853 215.600 142.087 216.455 C 138.868 218.013,137.696 221.243,139.253 224.266 C 141.131 227.914,135.651 227.600,197.494 227.600 L 252.000 227.600 252.000 228.413 C 252.000 228.861,251.538 230.139,250.973 231.253 C 250.408 232.368,250.043 233.377,250.162 233.495 C 250.281 233.614,250.544 233.281,250.748 232.755 C 251.131 231.768,252.907 227.904,255.691 222.000 C 258.357 216.348,259.200 214.400,258.982 214.400 C 258.868 214.400,258.671 214.670,258.545 215.000 M100.508 216.386 C 96.115 218.380,95.809 224.609,99.994 226.853 C 101.941 227.897,116.881 227.979,119.033 226.957 C 123.365 224.902,123.124 218.399,118.640 216.362 C 116.168 215.240,102.995 215.257,100.508 216.386 M307.767 228.083 C 307.364 229.028,306.897 230.115,306.730 230.500 C 306.563 230.885,306.497 231.200,306.583 231.200 C 306.880 231.200,308.907 226.774,308.703 226.570 C 308.592 226.458,308.170 227.139,307.767 228.083 M305.455 233.055 C 305.076 233.849,304.848 234.581,304.949 234.682 C 305.049 234.783,305.441 234.214,305.818 233.418 C 306.196 232.622,306.423 231.890,306.324 231.791 C 306.225 231.691,305.833 232.260,305.455 233.055 M248.641 236.223 C 247.236 239.291,247.356 239.547,248.846 236.660 C 249.510 235.373,249.970 234.236,249.868 234.134 C 249.766 234.032,249.214 234.972,248.641 236.223 M302.659 239.059 C 302.056 240.289,301.647 241.381,301.752 241.485 C 301.857 241.590,302.413 240.646,302.988 239.388 C 304.348 236.416,304.084 236.152,302.659 239.059 M300.623 243.406 C 299.760 245.472,299.874 245.706,300.847 243.862 C 301.293 243.016,301.565 242.232,301.452 242.119 C 301.339 242.006,300.966 242.585,300.623 243.406 M298.755 247.500 C 298.280 248.545,297.131 251.020,296.202 253.000 C 295.273 254.980,294.098 257.500,293.590 258.600 C 293.083 259.700,292.597 260.735,292.510 260.900 C 292.424 261.065,292.438 261.200,292.542 261.200 C 292.791 261.200,297.408 251.644,299.451 246.900 C 300.332 244.854,299.719 245.383,298.755 247.500 M243.442 247.237 C 242.506 249.113,242.690 249.676,243.647 247.862 C 244.093 247.016,244.374 246.240,244.271 246.137 C 244.168 246.034,243.795 246.529,243.442 247.237 M240.646 253.258 C 240.071 254.412,239.609 255.547,239.619 255.779 C 239.630 256.010,240.182 255.147,240.846 253.860 C 241.510 252.573,241.972 251.439,241.873 251.339 C 241.773 251.240,241.221 252.103,240.646 253.258 M238.182 258.600 L 237.106 260.800 189.878 260.800 L 142.650 260.800 141.363 261.682 C 137.434 264.374,137.762 269.771,141.985 271.900 L 143.770 272.800 187.672 272.800 C 229.299 272.800,231.564 272.836,231.361 273.500 C 230.992 274.713,235.582 265.276,238.609 258.600 C 239.008 257.720,239.405 256.865,239.491 256.700 C 239.577 256.535,239.560 256.400,239.453 256.400 C 239.346 256.400,238.774 257.390,238.182 258.600 M100.600 261.186 C 95.895 263.156,95.838 269.894,100.508 272.014 C 102.865 273.084,116.476 273.181,118.662 272.144 C 122.987 270.091,123.345 263.981,119.281 261.583 C 117.854 260.741,102.444 260.414,100.600 261.186 M291.615 262.698 C 290.531 265.019,289.997 266.400,290.183 266.400 C 290.454 266.400,292.469 261.935,292.282 261.749 C 292.198 261.665,291.898 262.092,291.615 262.698 M288.659 269.059 C 288.056 270.289,287.647 271.381,287.752 271.485 C 287.857 271.590,288.413 270.646,288.988 269.388 C 290.348 266.416,290.084 266.152,288.659 269.059 M286.259 274.259 C 285.656 275.489,285.242 276.575,285.340 276.673 C 285.438 276.771,285.989 275.822,286.565 274.565 C 287.925 271.594,287.684 271.353,286.259 274.259 M229.423 277.406 C 228.560 279.472,228.674 279.706,229.647 277.862 C 230.093 277.016,230.365 276.232,230.252 276.119 C 230.139 276.006,229.766 276.585,229.423 277.406 M284.457 278.045 C 284.256 278.570,283.351 280.575,282.446 282.500 C 279.910 287.893,277.791 292.438,276.991 294.200 C 276.592 295.080,276.195 295.935,276.109 296.100 C 276.023 296.265,276.045 296.400,276.158 296.400 C 276.352 296.400,277.670 293.737,280.340 287.949 C 280.987 286.547,282.347 283.617,283.363 281.439 C 284.379 279.260,285.123 277.390,285.016 277.283 C 284.910 277.176,284.658 277.519,284.457 278.045 M227.042 282.437 C 226.106 284.313,226.290 284.876,227.247 283.062 C 227.693 282.216,227.974 281.440,227.871 281.337 C 227.768 281.234,227.395 281.729,227.042 282.437 M223.582 289.861 C 223.102 290.927,222.369 292.555,221.954 293.478 C 221.540 294.401,221.184 295.931,221.165 296.878 C 221.146 297.825,220.918 300.130,220.658 302.000 L 220.186 305.400 181.593 305.600 C 143.771 305.796,142.972 305.816,141.600 306.609 C 137.881 308.759,137.637 313.977,141.134 316.600 C 142.178 317.384,142.983 317.404,180.400 317.600 L 218.600 317.800 218.716 320.855 C 218.802 323.111,218.681 324.062,218.253 324.490 C 217.932 324.811,217.572 326.212,217.445 327.634 C 217.077 331.769,216.456 338.295,216.021 342.600 C 215.799 344.800,215.445 348.490,215.236 350.800 C 215.026 353.110,214.732 355.403,214.582 355.895 C 213.554 359.268,217.690 362.789,221.881 362.109 C 223.338 361.873,235.861 349.862,240.333 344.412 C 241.140 343.429,242.835 341.651,244.100 340.461 C 245.365 339.271,246.400 338.128,246.400 337.920 C 246.400 337.326,245.321 336.400,244.629 336.400 C 244.283 336.400,244.000 336.220,244.000 336.000 C 244.000 335.780,243.685 335.594,243.300 335.587 C 241.148 335.548,241.091 334.698,242.389 322.000 C 242.580 320.130,242.919 316.530,243.142 314.000 C 243.684 307.865,243.927 306.797,244.710 307.097 C 245.119 307.254,245.232 307.176,245.042 306.868 C 244.883 306.611,244.499 306.400,244.189 306.400 C 243.878 306.400,242.983 306.040,242.200 305.600 C 241.417 305.160,240.511 304.800,240.188 304.800 C 239.865 304.800,239.600 304.620,239.600 304.400 C 239.600 304.180,239.360 304.000,239.066 304.000 C 238.772 304.000,237.287 303.394,235.766 302.654 C 234.245 301.914,232.010 300.886,230.800 300.371 C 229.590 299.855,227.637 298.931,226.459 298.317 C 225.282 297.702,224.067 297.200,223.759 297.200 C 223.452 297.200,223.200 297.020,223.200 296.800 C 223.200 296.580,222.924 296.400,222.587 296.400 C 221.396 296.400,221.548 295.198,223.173 291.761 C 224.078 289.849,224.736 288.203,224.637 288.103 C 224.537 288.004,224.062 288.795,223.582 289.861 M275.215 297.898 C 274.159 300.158,273.595 301.600,273.765 301.600 C 274.061 301.600,276.120 297.187,275.918 296.985 C 275.815 296.881,275.498 297.292,275.215 297.898 M271.855 305.055 C 271.476 305.849,271.248 306.581,271.349 306.682 C 271.449 306.783,271.841 306.214,272.218 305.418 C 272.596 304.622,272.823 303.890,272.724 303.791 C 272.625 303.691,272.233 304.260,271.855 305.055 M100.385 306.500 C 96.280 308.570,95.837 313.826,99.534 316.600 C 100.866 317.600,117.457 317.839,119.242 316.884 C 123.434 314.643,122.882 307.786,118.379 306.159 C 115.679 305.184,102.500 305.433,100.385 306.500 M269.859 309.459 C 269.256 310.689,268.842 311.775,268.940 311.873 C 269.038 311.971,269.589 311.022,270.165 309.765 C 271.525 306.794,271.284 306.553,269.859 309.459 M256.000 312.165 C 256.000 312.256,257.395 312.994,259.100 313.804 C 260.805 314.615,262.892 315.621,263.738 316.039 C 266.126 317.221,266.658 317.054,267.820 314.760 C 268.389 313.638,268.760 312.627,268.646 312.513 C 268.532 312.398,268.036 313.226,267.544 314.352 C 266.441 316.879,266.531 316.882,260.912 314.200 C 256.236 311.969,256.000 311.871,256.000 312.165 M223.855 327.236 C 226.245 328.355,229.370 329.811,230.800 330.471 C 235.583 332.678,245.600 337.732,245.600 337.939 C 245.600 338.175,242.592 341.331,231.146 353.100 L 222.879 361.600 220.470 361.600 C 215.077 361.600,214.791 360.370,216.421 344.200 C 217.414 334.349,217.633 331.986,217.858 328.700 C 218.150 324.433,217.969 324.478,223.855 327.236 " stroke="none" fill="#c4d3e3" fill-rule="evenodd"></path></g></svg>